<svg xmlns="http://www.w3.org/2000/svg" xmlns:xlink="http://www.w3.org/1999/xlink" width="1200" height="800" viewBox="0 0 1200 800">
  <defs>
    <style>
      .dashboard{fill:#f8fafc}
      .sidebar{fill:#f1f5f9;stroke:#e2e8f0;stroke-width:1}
      .topbar{fill:#fff;stroke:#e2e8f0;stroke-width:1}
      .card{fill:#fff;stroke:#e2e8f0;stroke-width:1;rx:8;ry:8;filter:drop-shadow(0px 4px 6px rgba(0,0,0,0.05))}
      .title{font:bold 18px "DejaVu Sans", Arial, sans-serif;fill:#111}
      .subtitle{font:bold 16px "DejaVu Sans", Arial, sans-serif;fill:#334155}
      .text{font:14px "DejaVu Sans", Arial, sans-serif;fill:#334155}
      .caption{font:12px "DejaVu Sans", Arial, sans-serif;fill:#64748b}
      .label{font:12px "DejaVu Sans", Arial, sans-serif;fill:#64748b}
      .value{font:bold 20px "DejaVu Sans", Arial, sans-serif;fill:#0f172a}
      .delta-up{font:bold 12px "DejaVu Sans", Arial, sans-serif;fill:#16a34a}
      .delta-down{font:bold 12px "DejaVu Sans", Arial, sans-serif;fill:#dc2626}
      .nav-item{font:14px "DejaVu Sans", Arial, sans-serif;fill:#475569}
      .nav-item-active{font:bold 14px "DejaVu Sans", Arial, sans-serif;fill:#0f172a}
      .btn{fill:#3b82f6;rx:6;ry:6}
      .btn-text{font:bold 14px "DejaVu Sans", Arial, sans-serif;fill:#fff;text-anchor:middle}
      .btn-outline{fill:#fff;stroke:#3b82f6;stroke-width:1.5;rx:6;ry:6}
      .btn-outline-text{font:bold 14px "DejaVu Sans", Arial, sans-serif;fill:#3b82f6;text-anchor:middle}
      .icon{fill:#64748b}
      .tab{fill:#fff;rx:6 6 0 0;ry:6 6 0 0}
      .tab-active{fill:#f1f5f9;rx:6 6 0 0;ry:6 6 0 0}
      .tab-text{font:14px "DejaVu Sans", Arial, sans-serif;fill:#64748b;text-anchor:middle}
      .tab-text-active{font:bold 14px "DejaVu Sans", Arial, sans-serif;fill:#0f172a;text-anchor:middle}
      .grid-line{stroke:#e2e8f0;stroke-width:1}
      .tooltip{fill:#1e293b;rx:4;ry:4;filter:drop-shadow(0px 4px 6px rgba(0,0,0,0.15))}
      .tooltip-text{font:12px "DejaVu Sans", Arial, sans-serif;fill:#f8fafc}
      .status-ok{fill:#86efac}
      .status-warning{fill:#fcd34d}
      .status-error{fill:#fca5a5}
      .chart-line{fill:none;stroke:#3b82f6;stroke-width:2}
      .chart-area{fill:url(#chart-gradient);opacity:0.2}
      .chart-dot{fill:#fff;stroke:#3b82f6;stroke-width:2}
      .legend-item{font:12px "DejaVu Sans", Arial, sans-serif;fill:#1e293b}
      .shelf-optimal{fill:#22c55e;opacity:0.8}
      .shelf-low{fill:#f59e0b;opacity:0.8}
      .shelf-critical{fill:#dc2626;opacity:0.8}
      .rfid-active{fill:#3b82f6;animation:pulse 2s infinite}
      .tiny-text{font:10px "DejaVu Sans", Arial, sans-serif;fill:#64748b}
    </style>
    <linearGradient id="chart-gradient" x1="0%" y1="0%" x2="0%" y2="100%">
      <stop offset="0%" stop-color="#3b82f6"/>
      <stop offset="100%" stop-color="#3b82f6" stop-opacity="0"/>
    </linearGradient>
    <filter id="shadow" x="-20%" y="-20%" width="140%" height="140%">
      <feDropShadow dx="0" dy="2" stdDeviation="4" flood-color="#0f172a12"/>
    </filter>
    <pattern id="grid-pattern" width="40" height="40" patternUnits="userSpaceOnUse">
      <rect width="40" height="40" fill="none"/>
      <path d="M 40 0 L 0 0 0 40" fill="none" stroke="#e2e8f0" stroke-width="1"/>
    </pattern>
    <linearGradient id="inventory-gradient" x1="0%" y1="0%" x2="0%" y2="100%">
      <stop offset="0%" stop-color="#22c55e"/>
      <stop offset="50%" stop-color="#f59e0b"/>
      <stop offset="100%" stop-color="#dc2626"/>
    </linearGradient>
  </defs>

  <!-- Main background -->
  <rect width="1200" height="800" class="dashboard"/>

  <!-- Sidebar -->
  <rect x="0" y="0" width="240" height="800" class="sidebar"/>
  <text x="32" y="40" class="title">Enterprise Inventory</text>
  <line x1="16" y1="60" x2="224" y2="60" class="grid-line"/>
  
  <!-- Navigation items -->
  <g transform="translate(16, 80)">
    <rect width="208" height="40" rx="6" fill="#dbeafe"/>
    <text x="104" y="26" class="nav-item-active" text-anchor="middle">Мониторинг</text>
    <path class="icon" transform="translate(20, 12)" fill="#3b82f6" d="M10.707 2.293a1 1 0 00-1.414 0l-7 7a1 1 0 001.414 1.414L4 10.414V17a1 1 0 001 1h2a1 1 0 001-1v-2a1 1 0 011-1h2a1 1 0 011 1v2a1 1 0 001 1h2a1 1 0 001-1v-6.586l.293.293a1 1 0 001.414-1.414l-7-7z"/>
  </g>
  
  <g transform="translate(16, 130)">
    <rect width="208" height="40" rx="6" fill="transparent"/>
    <text x="104" y="26" class="nav-item" text-anchor="middle">Заказы</text>
    <path class="icon" transform="translate(20, 12)" d="M7 3a1 1 0 000 2h6a1 1 0 100-2H7zM4 7a1 1 0 011-1h10a1 1 0 110 2H5a1 1 0 01-1-1zM2 11a2 2 0 012-2h12a2 2 0 012 2v4a2 2 0 01-2 2H4a2 2 0 01-2-2v-4z"/>
  </g>
  
  <g transform="translate(16, 180)">
    <rect width="208" height="40" rx="6" fill="transparent"/>
    <text x="104" y="26" class="nav-item" text-anchor="middle">Поставки</text>
    <path class="icon" transform="translate(20, 12)" d="M3 12l2-2m0 0l7-7 7 7M5 10v10a1 1 0 001 1h3m10-11l2 2m-2-2v10a1 1 0 01-1 1h-3m-6 0a1 1 0 001-1v-4a1 1 0 011-1h2a1 1 0 011 1v4a1 1 0 001 1m-6 0h6"/>
  </g>
  
  <g transform="translate(16, 230)">
    <rect width="208" height="40" rx="6" fill="transparent"/>
    <text x="104" y="26" class="nav-item" text-anchor="middle">RFID монитор</text>
    <path class="icon" transform="translate(20, 12)" d="M9 3v2m6-2v2M9 19v2m6-2v2M5 9H3m2 6H3m18-6h-2m2 6h-2M7 19h10a2 2 0 002-2V7a2 2 0 00-2-2H7a2 2 0 00-2 2v10a2 2 0 002 2zM9 9h6v6H9V9z"/>
  </g>
  
  <g transform="translate(16, 280)">
    <rect width="208" height="40" rx="6" fill="transparent"/>
    <text x="104" y="26" class="nav-item" text-anchor="middle">MES интеграция</text>
    <path class="icon" transform="translate(20, 12)" d="M10.325 4.317c.426-1.756 2.924-1.756 3.35 0a1.724 1.724 0 002.573 1.066c1.543-.94 3.31.826 2.37 2.37a1.724 1.724 0 001.065 2.572c1.756.426 1.756 2.924 0 3.35a1.724 1.724 0 00-1.066 2.573c.94 1.543-.826 3.31-2.37 2.37a1.724 1.724 0 00-2.572 1.065c-.426 1.756-2.924 1.756-3.35 0a1.724 1.724 0 00-2.573-1.066c-1.543.94-3.31-.826-2.37-2.37a1.724 1.724 0 00-1.065-2.572c-1.756-.426-1.756-2.924 0-3.35a1.724 1.724 0 001.066-2.573c-.94-1.543.826-3.31 2.37-2.37.996.608 2.296.07 2.572-1.065z"/>
    <path class="icon" transform="translate(26, 18)" d="M15 12a3 3 0 11-6 0 3 3 0 016 0z"/>
  </g>
  
  <line x1="16" y1="340" x2="224" y2="340" class="grid-line"/>
  
  <!-- User info -->
  <g transform="translate(16, 360)">
    <circle cx="24" cy="20" r="16" fill="#bfdbfe"/>
    <text x="24" y="25" text-anchor="middle" font-weight="bold" fill="#1e40af">МС</text>
    <text x="56" y="18" class="text">Мария Сидорова</text>
    <text x="56" y="36" class="caption">Менеджер склада</text>
  </g>
  
  <!-- Topbar -->
  <rect x="240" y="0" width="960" height="60" class="topbar"/>
  <text x="280" y="36" class="title">Управление складом предприятия</text>
  <text x="1000" y="36" class="caption" text-anchor="end">12 мая 2023 • 14:28</text>
  
  <!-- Zone selector -->
  <g transform="translate(280, 80)">
    <rect width="160" height="40" rx="6" class="tab-active"/>
    <text x="80" y="25" class="tab-text-active">Зона А</text>
  </g>
  <g transform="translate(440, 80)">
    <rect width="160" height="40" rx="6" class="tab"/>
    <text x="80" y="25" class="tab-text">Зона Б</text>
  </g>
  
  <g transform="translate(280, 120)">
    <rect width="160" height="40" rx="6" class="tab"/>
    <text x="80" y="25" class="tab-text">Зона В</text>
  </g>
  <g transform="translate(440, 120)">
    <rect width="160" height="40" rx="6" class="tab"/>
    <text x="80" y="25" class="tab-text">Холодильник</text>
  </g>
  
  <rect x="660" y="100" width="180" height="40" class="btn"/>
  <text x="750" y="125" class="btn-text">Синхронизация MES</text>
  
  <!-- Quick stats -->
  <g transform="translate(280, 180)">
    <rect width="200" height="120" class="card"/>
    <text x="24" y="30" class="label">ЗАПАСЫ</text>
    <text x="24" y="60" class="value">85% заполнено</text>
    <text x="24" y="80" class="delta-up">5 позиций низко</text>
    <text x="24" y="100" class="caption">Критично: 3</text>
    <rect x="160" y="20" width="16" height="16" rx="8" class="status-warning"/>
  </g>
  
  <g transform="translate(500, 180)">
    <rect width="200" height="120" class="card"/>
    <text x="24" y="30" class="label">АКТИВНЫЕ ЗАКАЗЫ</text>
    <text x="24" y="60" class="value">12</text>
    <text x="24" y="80" class="delta-down">В пути: 8</text>
    <text x="24" y="100" class="caption">На сегодня: 24</text>
    <rect x="160" y="20" width="16" height="16" rx="8" class="status-ok"/>
  </g>
  
  <g transform="translate(720, 180)">
    <rect width="200" height="120" class="card"/>
    <text x="24" y="30" class="label">ТЕМПЕРАТУРА</text>
    <text x="24" y="60" class="value">+22.4 °C</text>
    <text x="24" y="80" class="caption">Диапазон: +21.8...+23.1 °C</text>
    <text x="24" y="100" class="caption">Целевая: +22.0 °C</text>
    <rect x="160" y="20" width="16" height="16" rx="8" class="status-ok"/>
  </g>
  
  <g transform="translate(940, 180)">
    <rect width="200" height="120" class="card"/>
    <text x="24" y="30" class="label">RFID СТАТУС</text>
    <text x="24" y="60" class="value">98.2%</text>
    <text x="24" y="80" class="caption">245/250 меток активно</text>
    <text x="24" y="100" class="caption">Последнее: 14:25:17</text>
    <rect x="160" y="20" width="16" height="16" rx="8" class="status-ok"/>
  </g>
  
  <!-- Charts -->
  <g transform="translate(280, 320)">
    <rect width="520" height="280" class="card"/>
    <text x="24" y="30" class="subtitle">Динамика запасов</text>
    <text x="24" y="50" class="caption">Уровни запасов по основным категориям</text>
    
    <!-- Chart coordinates system -->
    <line x1="50" y1="70" x2="50" y2="230" class="grid-line"/>
    <line x1="50" y1="230" x2="490" y2="230" class="grid-line"/>
    
    <!-- Y-axis labels -->
    <text x="40" y="80" class="caption" text-anchor="end">100%</text>
    <text x="40" y="122" class="caption" text-anchor="end">75%</text>
    <text x="40" y="164" class="caption" text-anchor="end">50%</text>
    <text x="40" y="206" class="caption" text-anchor="end">25%</text>
    <text x="40" y="248" class="caption" text-anchor="end">0%</text>
    
    <!-- X-axis labels -->
    <text x="120" y="250" class="caption" text-anchor="middle">Напитки</text>
    <text x="230" y="250" class="caption" text-anchor="middle">Продукты</text>
    <text x="340" y="250" class="caption" text-anchor="middle">Сувениры</text>
    <text x="450" y="250" class="caption" text-anchor="middle">Хозтовары</text>
    
    <!-- Grid lines -->
    <line x1="50" y1="80" x2="490" y2="80" stroke="#f1f5f9" stroke-width="1"/>
    <line x1="50" y1="122" x2="490" y2="122" stroke="#f1f5f9" stroke-width="1"/>
    <line x1="50" y1="164" x2="490" y2="164" stroke="#f1f5f9" stroke-width="1"/>
    <line x1="50" y1="206" x2="490" y2="206" stroke="#f1f5f9" stroke-width="1"/>
    
    <!-- Inventory bars -->
    <rect x="80" y="130" width="60" height="100" fill="url(#inventory-gradient)"/>
    <rect x="80" y="130" width="60" height="80" fill="#3b82f6" opacity="0.9"/>
    <text x="110" y="125" class="caption" text-anchor="middle">80%</text>
    
    <rect x="190" y="150" width="60" height="80" fill="url(#inventory-gradient)"/>
    <rect x="190" y="150" width="60" height="60" fill="#3b82f6" opacity="0.9"/>
    <text x="220" y="145" class="caption" text-anchor="middle">60%</text>
    
    <rect x="300" y="110" width="60" height="120" fill="url(#inventory-gradient)"/>
    <rect x="300" y="110" width="60" height="100" fill="#3b82f6" opacity="0.9"/>
    <text x="330" y="105" class="caption" text-anchor="middle">83%</text>
    
    <rect x="410" y="170" width="60" height="60" fill="url(#inventory-gradient)"/>
    <rect x="410" y="170" width="60" height="30" fill="#dc2626" opacity="0.9"/>
    <text x="440" y="165" class="caption" text-anchor="middle">50%</text>
    
    <!-- Critical level line -->
    <line x1="50" y1="190" x2="490" y2="190" stroke="#dc2626" stroke-width="1" stroke-dasharray="4,2"/>
    <text x="40" y="195" class="caption" text-anchor="end" fill="#dc2626">Критич.</text>
    
    <!-- Legend -->
    <rect x="380" y="30" width="14" height="5" fill="#3b82f6"/>
    <text x="400" y="35" class="legend-item">Текущий уровень</text>
    
    <rect x="380" y="50" width="14" height="5" fill="#dc2626"/>
    <text x="400" y="55" class="legend-item">Ниже нормы</text>
  </g>
  
  <!-- Warehouse Map -->
  <g transform="translate(820, 320)">
    <rect width="320" height="280" class="card"/>
    <text x="24" y="30" class="subtitle">Карта склада</text>
    <text x="24" y="50" class="caption">Статус зон в реальном времени</text>
    
    <!-- Warehouse layout -->
    <rect x="40" y="70" width="240" height="180" rx="8" fill="#f8fafc" stroke="#e2e8f0" stroke-width="1"/>
    
    <!-- Shelves -->
    <rect x="60" y="80" width="40" height="60" class="shelf-optimal"/>
    <rect x="110" y="80" width="40" height="60" class="shelf-optimal"/>
    <rect x="160" y="80" width="40" height="60" class="shelf-low"/>
    <rect x="210" y="80" width="40" height="60" class="shelf-critical"/>
    
    <rect x="60" y="150" width="40" height="60" class="shelf-optimal"/>
    <rect x="110" y="150" width="40" height="60" class="shelf-optimal"/>
    <rect x="160" y="150" width="40" height="60" class="shelf-optimal"/>
    <rect x="210" y="150" width="40" height="60" class="shelf-low"/>
    
    <!-- Status indicators -->
    <g transform="translate(44, 225)">
      <rect width="14" height="14" class="status-ok"/>
      <text x="20" y="12" font-size="10px">Оптимально</text>
    </g>
    
    <g transform="translate(128, 225)">
      <rect width="14" height="14" class="status-warning"/>
      <text x="22" y="12" font-size="10px">Низ. уров.</text>
    </g>
    
    <g transform="translate(204, 225)">
      <rect width="14" height="14" class="status-error"/>
      <text x="20" y="12" font-size="10px">Критично</text>
    </g>
  </g>
  
  <!-- System status -->
  <g transform="translate(280, 620)">
    <rect width="860" height="150" class="card"/>
    <text x="24" y="30" class="subtitle">Состояние IIoT систем</text>
    
    <line x1="24" y1="50" x2="836" y2="50" class="grid-line"/>
    
    <!-- Table header -->
    <text x="24" y="70" class="label">СИСТЕМА</text>
    <text x="300" y="70" class="label">СТАТУС</text>
    <text x="450" y="70" class="label">АКТИВНОСТЬ</text>
    <text x="600" y="70" class="label">ПОСЛЕДНЕЕ ОБНОВЛЕНИЕ</text>
    
    <!-- Table rows -->
    <line x1="24" y1="80" x2="836" y2="80" class="grid-line"/>
    
    <text x="24" y="100" class="text">RFID сканеры</text>
    <text x="300" y="100" class="text">Активны</text>
    <rect x="450" y="92" width="120" height="12" rx="6" fill="#f1f5f9"/>
    <rect x="450" y="92" width="108" height="12" rx="6" fill="#3b82f6"/>
    <text x="580" y="100" class="caption">90%</text>
    <text x="610" y="100" class="tiny-text">14:26:08 — 245 меток</text>
    <circle cx="290" cy="96" r="6" class="status-ok"/>
    
    <line x1="24" y1="110" x2="836" y2="110" class="grid-line"/>
    
    <text x="24" y="130" class="text">Датчики температуры</text>
    <text x="300" y="130" class="text">Активны</text>
    <rect x="450" y="122" width="120" height="12" rx="6" fill="#f1f5f9"/>
    <rect x="450" y="122" width="96" height="12" rx="6" fill="#3b82f6"/>
    <text x="580" y="130" class="caption">80%</text>
    <text x="610" y="130" class="tiny-text">14:27:32 — +22.4°C</text>
    <circle cx="290" cy="126" r="6" class="status-ok"/>
    
    <line x1="24" y1="140" x2="836" y2="140" class="grid-line"/>
    
    <text x="24" y="160" class="text">MES интеграция</text>
    <text x="300" y="160" class="text">Синхронизировано</text>
    <rect x="450" y="152" width="120" height="12" rx="6" fill="#f1f5f9"/>
    <rect x="450" y="152" width="120" height="12" rx="6" fill="#16a34a"/>
    <text x="580" y="160" class="caption">100%</text>
    <text x="610" y="160" class="tiny-text">14:28:01 — 12 заказов</text>
    <circle cx="290" cy="156" r="6" class="status-ok"/>
  </g>
</svg>